# xmcd
#
# Track frame offsets:
#  150
#  9864
#  19599
#  31541
#  41244
#  57854
#  69086
#  77053
#  87769
#  96000
#  103450
#  115780
#  128313
#  138447
#  149512
#  159681
#  172955
#  187222
#  196521
#  207448
#  218609
#  228377
#  239813
#  248925
#  257865
#
# Disc length: 3620 seconds
#
# Revision: 1
# Processed by: cddbd v1.5.1PL2 Copyright (c) Steve Scherf et al.
# Submitted via: Collectorz.com_Music_Collector 6.11
#
DISCID=520e2219
DTITLE=Baby Washington and The Hearts - Baby Washington and The Hearts
DYEAR=2005
DGENRE=Blues - Girl Group
TTITLE0=You Needn't Tell Me, I Know
TTITLE1=Hearts - I Want Your Love Tonight
TTITLE2=Baby Washington - Congratulations Honey
TTITLE3=The Hearts - If I Had Known
TTITLE4=The Hearts - You Weren't Home
TTITLE5=The Hearts - I Feel So Good
TTITLE6=Baby Washington - Ah Ha
TTITLE7=The Hearts - There Is No Love At All
TTITLE8=Baby Washington - There Must Be A Reason
TTITLE9=Baby Washington - Been A Long Time Baby
TTITLE10=You Say You Love Me
TTITLE11=Dancing In A Dream World
TTITLE12=Baby Washington - Every Day
TTITLE13=Baby Washington - I Hate To See You Go
TTITLE14=The Hearts - A Thousand Years From Today
TTITLE15=The Hearts - Dear Abby
TTITLE16=The Hearts - I Couldn't Let You See Me Crying
TTITLE17=The Hearts - Goodbye, Baby
TTITLE18=The Hearts - Like, Later Baby
TTITLE19=The Hearts - There Are So Many Ways
TTITLE20=The Hearts - My Love Has Gone
TTITLE21=The Hearts - So Long Baby
TTITLE22=The Hearts - You Or Me Has Got To Go
TTITLE23=The Hearts - Do You Remember
TTITLE24=The Hearts - Don't Let Me Down
EXTD=
EXTT0=
EXTT1=
EXTT2=
EXTT3=
EXTT4=
EXTT5=
EXTT6=
EXTT7=
EXTT8=
EXTT9=
EXTT10=
EXTT11=
EXTT12=
EXTT13=
EXTT14=
EXTT15=
EXTT16=
EXTT17=
EXTT18=
EXTT19=
EXTT20=
EXTT21=
EXTT22=
EXTT23=
EXTT24=
PLAYORDER=
